<svg width="24" height="24" viewBox="0 0 24 24" fill="none" xmlns="http://www.w3.org/2000/svg">
<mask id="mask0_179_9" style="mask-type:alpha" maskUnits="userSpaceOnUse" x="0" y="0" width="24" height="24">
<rect width="24" height="24" fill="#D1DFF8"/>
</mask>
<g mask="url(#mask0_179_9)">
<path d="M8.76006 24L8.28006 20.16C8.02006 20.06 7.77506 19.94 7.54506 19.8C7.31506 19.66 7.09006 19.51 6.87006 19.35L3.30006 20.85L6.10352e-05 15.15L3.09006 12.81C3.07006 12.67 3.06006 12.535 3.06006 12.405V11.595C3.06006 11.465 3.07006 11.33 3.09006 11.19L6.10352e-05 8.85L3.30006 3.15L6.87006 4.65C7.09006 4.49 7.32006 4.34 7.56006 4.2C7.80006 4.06 8.04006 3.94 8.28006 3.84L8.76006 0H15.3601L15.8401 3.84C16.1001 3.94 16.3451 4.06 16.5751 4.2C16.8051 4.34 17.0301 4.49 17.2501 4.65L20.8201 3.15L24.1201 8.85L21.0301 11.19C21.0501 11.33 21.0601 11.465 21.0601 11.595V12.405C21.0601 12.535 21.0401 12.67 21.0001 12.81L24.0901 15.15L20.7901 20.85L17.2501 19.35C17.0301 19.51 16.8001 19.66 16.5601 19.8C16.3201 19.94 16.0801 20.06 15.8401 20.16L15.3601 24H8.76006ZM12.1201 16.2C13.2801 16.2 14.2701 15.79 15.0901 14.97C15.9101 14.15 16.3201 13.16 16.3201 12C16.3201 10.84 15.9101 9.85 15.0901 9.03C14.2701 8.21 13.2801 7.8 12.1201 7.8C10.9401 7.8 9.94506 8.21 9.13506 9.03C8.32506 9.85 7.92006 10.84 7.92006 12C7.92006 13.16 8.32506 14.15 9.13506 14.97C9.94506 15.79 10.9401 16.2 12.1201 16.2Z" fill="#D1DFF8"/>
</g>
</svg>
